# xmcd CD database file
#
# Track frame offsets:
#	150
#	13944
#	31274
#	44871
#	57506
#	68225
#	84327
#	100281
#	120627
#	140475
#
# Disc length: 2049 seconds
#
# Revision: 0
# Processed by: cddbd v1.5PL3 Copyright (c) Steve Scherf et al.
# Submitted via: ACXtractor (MTCDDB.DLL V2003.12.21)
#
DISCID=8e07ff0a
DTITLE=Dry Fork - I've Traded It All
DYEAR=2003
DGENRE=Gospel
TTITLE0=Medals For Mothers
TTITLE1=Any Day Now
TTITLE2=Too Much To Gain To Lose
TTITLE3=Keep On The Sunny Side
TTITLE4=Lay Your Burdens
TTITLE5=Kings Harbor Shore
TTITLE6=I've Traded It All
TTITLE7=One Day At A Time
TTITLE8=Wayfaring Stranger
TTITLE9=Gone Away
EXTD=ID3G:  38 YEAR: 2003
EXTT0=
EXTT1=
EXTT2=
EXTT3=
EXTT4=
EXTT5=
EXTT6=
EXTT7=
EXTT8=
EXTT9=
PLAYORDER=
